# xmcd
#
# Track frame offsets:
#	150
#	21908
#	36237
#	53744
#	68351
#	82955
#	98716
#	115367
#	127716
#	142260
#	167200
#	181631
#	194808
#	207056
#	222897
#	233367
#	248824
#	264353
#	275634
#	289942
#	304678
#	318951
#
# Disc length: 4426
#
# Revision: 2
# Processed by: cddbd v1.5.1PL0 Copyright (c) Steve Scherf et al.
# Submitted via: CDex 1.51
# Normalized: r0:TDELIM( - ),TSWAP
#
DISCID=35114816
DTITLE=Ellington, Goodman, Basie, Heath - Big Band Classics
DYEAR=2003
DGENRE=Jazz
TTITLE0=Duke Ellington - C Jam Blues
TTITLE1=Count Basie - Jumpin' At The Woodside
TTITLE2=Benny Goodman - One O'Clock Jump
TTITLE3=Colin Busby's Big Swing Band - In The Mood
TTITLE4=Don Lusher - Cute
TTITLE5=Joe Loss - Chick Henderson - Begin The Beguine
TTITLE6=Kenny Baker - What's New
TTITLE7=Sid Phillips - Betty Driver - Red Silken Stockings
TTITLE8=Benny Goodman - Stompin' At The Savoy
TTITLE9=Duke Ellington - Louis Armstrong - I Got It Bad And That Ain't Good
TTITLE10=Colin Busby's Big Swing Band - Skyliner
TTITLE11=Ted Heath - Hot Toddy
TTITLE12=Stan Kenton - June Christy - Tampico
TTITLE13=Harry James - You Made Me Love You
TTITLE14=Tommy Watt - Overdrive
TTITLE15=Geraldo - Dorothy Carless - That Lovely Weekend
TTITLE16=Artie Shaw Navie Band - Deep Night
TTITLE17=Ted Heath - Opus One
TTITLE18=Lionel Hampton - Flying Home
TTITLE19=Don Lusher - Boogie Woogie
TTITLE20=Stan Kenton - Eager Beaver
TTITLE21=Geraldo - Archie Lewis - Shine On Harvest Moon
EXTD=YEAR: 2003
EXTT0=
EXTT1=
EXTT2=
EXTT3=
EXTT4=
EXTT5=
EXTT6=
EXTT7=
EXTT8=
EXTT9=
EXTT10=
EXTT11=
EXTT12=
EXTT13=
EXTT14=
EXTT15=
EXTT16=
EXTT17=
EXTT18=
EXTT19=
EXTT20=
EXTT21=
PLAYORDER=
